<?xml version="1.0" encoding="utf-8"?>
<!-- Generator: Adobe Illustrator 18.1.1, SVG Export Plug-In . SVG Version: 6.00 Build 0)  -->
<svg version="1.1" id="Layer_1" xmlns="http://www.w3.org/2000/svg" xmlns:xlink="http://www.w3.org/1999/xlink" x="0px" y="0px"
	 viewBox="0 0 643.4 442" enable-background="new 0 0 643.4 442" xml:space="preserve">
<linearGradient id="SVGID_1_" gradientUnits="userSpaceOnUse" x1="322.3956" y1="393.9659" x2="322.3956" y2="47.111">
	<stop  offset="0" style="stop-color:#FFFFFF;stop-opacity:0"/>
	<stop  offset="1" style="stop-color:#FFFFFF;stop-opacity:0.6"/>
</linearGradient>
<path opacity="0.62" fill="url(#SVGID_1_)" d="M593.3,238.1c-0.5,48.1-37.4,87.2-95.3,99.7c-13.4,2.9-23.1,6.9-30.7,17.4
	c-30.5,42-92.1,51.6-137.8,20.7c-13.2-9-20.1-7.6-33-0.4c-51.7,29-115.5,13.4-139.5-34.5c-6.5-12.9-13.3-17-30.2-16.7
	c-36.7,0.8-63.7-17.5-72.8-46.5c-8.6-27.1,4.1-54.8,35.3-68.6c16.1-7.1,18.9-15.1,18.6-29c-1.4-52.5,56-88.9,117.6-75.3
	c14,3.1,22.3,4.1,31.1-8.9c24.7-36.5,64.2-53.3,114.3-47.9c50.2,5.4,83.1,29.7,95.5,70.5c4.1,13.4,14.8,14.1,26.4,16.6
	C555.5,148.2,593.8,187.5,593.3,238.1z"/>
</svg>
