<?xml version="1.0" encoding="utf-8"?>
<!-- Generator: Adobe Illustrator 18.1.1, SVG Export Plug-In . SVG Version: 6.00 Build 0)  -->
<svg version="1.1" id="Layer_1" xmlns="http://www.w3.org/2000/svg" xmlns:xlink="http://www.w3.org/1999/xlink" x="0px" y="0px"
	 viewBox="0 0 528 208.2" enable-background="new 0 0 528 208.2" xml:space="preserve">
<g>
	<path fill="#595A5C" d="M205.8,88.8v74.3c0,1.5,1,2.7,2.2,2.7h1.5c1.2,0,2.2-1.2,2.2-2.7V88.8c0-1.5-1-2.7-2.2-2.7h-1.5
		C206.7,86.2,205.8,87.4,205.8,88.8L205.8,88.8z"/>
	<path fill="#6E6F72" d="M200.3,89.7l4.1,7.9c0.3,0.5,0.8,0.9,1.4,0.9h5.2c0.6,0,1.2-0.4,1.5-0.9l3.8-7.6c0.5-1.1-0.2-2.3-1.4-2.4
		l-13.1-0.3C200.5,87.3,199.7,88.6,200.3,89.7z"/>
	<path opacity="0.38" fill="#231F20" d="M207.9,165.8c-1.2,0-2.2-1.2-2.2-2.7V98.4c-0.6,0-1.1-0.4-1.4-0.9l-4.1-7.9
		c-0.6-1.1,0.2-2.4,1.5-2.4l4.3,0.1c0.4-0.8,1.1-1.3,1.8-1.3V165.8z"/>
	<path fill="#6E6F72" d="M434.6,64.1c0,0,1.8-6.6,7.6-6.3c0,0,6.1-0.4,7.6,6.3H434.6z"/>
	<path fill="#595A5C" d="M438.6,90.8v87.1c0,1.7,1.4,3.1,3.1,3.1h0.5c1.7,0,3.1-1.4,3.1-3.1V90.8c0-1.7-1.4-3.1-3.1-3.1h-0.5
		C440,87.7,438.6,89.1,438.6,90.8L438.6,90.8z"/>
	<path fill="#6E6F72" d="M432.1,80l5.3,12.5c0.1,0.4,0.6,0.7,1.5,0.7l6,0.1c0.7,0,1.3-0.2,1.5-0.6l6.7-12.6c0.2-0.5-0.5-0.9-1.5-0.9
		H433L432.1,80z"/>
	<path opacity="0.15" fill="#231F20" d="M441.9,64.2l8,0c-1.6-6.7-8-6.3-8-6.3L441.9,64.2z"/>
	<path fill="#259ED9" d="M374.1,62.6h55.7h21.7c2.3,0,4.1,1.8,4.1,4.1v9.2c0,0.9-0.3,1.7-0.8,2.4l-2.7,3.7c-0.8,1.1-2,1.7-3.3,1.7
		h-12.4c-1.2,0-2.4-0.6-3.2-1.5l-4.5-5.5c-0.8-1-1.9-1.5-3.2-1.5H317.2c-1.7,0-3.3-1.1-3.8-2.7l-3.6-9.9"/>
	<path opacity="0.3" fill="#FFFFFF" d="M441.9,62.5h9.4c2.3,0,4.1,1.8,4.1,4.1v1.8l0.2,0l0,1.9v5.4c0,0.9-0.3,1.7-0.8,2.4l-2.7,3.7
		c0,0-0.1,0.1-0.1,0.1l-5.7,10.7c-0.1,0.2-0.5,0.4-1,0.5v84.8c0,1.7-1.4,3.1-3.1,3.1L441.9,62.5z"/>
	<path opacity="0.19" fill="#231F20" d="M455.7,68.4l0,1.9v5.4c0,0.9-0.3,1.7-0.8,2.4l-2.7,3.7c-0.8,1.1-2,1.7-3.3,1.7h-12.4
		c-1.2,0-2.4-0.6-3.2-1.5l-4.5-5.5c-0.8-1-1.9-1.5-3.2-1.5H317.2c-1.7,0-3.3-1.1-3.8-2.7l-1.7-4.6L455.7,68.4z"/>
	<polygon opacity="0.16" fill="#231F20" points="347.5,75.4 316,75.4 315.8,67.7 348.7,67.7 349,73.7 	"/>
	<path fill="#6E6F72" d="M69.6,64.6c0,0,0.2-7.6,8.1-7.9c0,0,6.4,1,7.5,7L69.6,64.6z"/>
	<path opacity="0.15" fill="#231F20" d="M77.4,64.1l-7.8,0.5c0,0,0.2-7.6,8.1-7.9L77.4,64.1z"/>
	<path fill="#595A5C" d="M75.3,89.5v91.1c0,1.4,1.1,2.6,2.4,2.6h1.2c1.3,0,2.4-1.2,2.4-2.6V89.5c0-1.4-1.1-2.6-2.4-2.6h-1.2
		C76.3,86.9,75.3,88.1,75.3,89.5L75.3,89.5z"/>
	<path opacity="0.3" fill="#231F20" d="M78.9,87h-1.2c-1.3,0-2.4,1.2-2.4,2.6l0,0v91.1c0,1.4,1.1,2.6,2.4,2.6h1.2V87z"/>
	<path fill="#818285" d="M68.2,79.5l6,12.7c0.3,0.7,1.5,1.2,2.9,1.2h2.2c1.4,0,2.7-0.6,2.9-1.3l4.5-12.8c0.4-1-1.1-2-3-1.9
		l-12.8,0.1C69.1,77.5,67.7,78.5,68.2,79.5z"/>
	<path opacity="0.1" fill="#231F20" d="M82,92"/>
	<path opacity="0.3" fill="#231F20" d="M78.9,93.4l-1.8,0c-1.4,0-2.5-0.5-2.9-1.2l-6-12.7c-0.5-1,0.9-2,2.8-2l6.3,0v6.1L78.9,93.4z"
		/>
	<path fill="#595A5C" d="M442,54.6c0.6-0.1,1.2,0,1.7,0.1c0.5-0.1,1.7-0.3,2.1-0.4c0.6-0.2,4.8-1.2,9.7-1.7
		c4.9-0.4,33.6-2.5,36.2-2.7c2.6-0.2,3.8,0.6,4,1.2c0.2,0.5,0.2,0.7,0.2,0.7s-38.3,6.8-39.7,7c-1.3,0.2-2.4,0.4-4.2,0.1
		c-1.8-0.2-4.3-0.8-5.5-1.1c-0.9-0.2-1.9-0.3-2.4-0.4c-0.5,0.2-1.1,0.4-1.8,0.5c-0.6,0.1-1.2,0-1.7-0.1c-0.5,0.1-1.7,0.3-2.1,0.4
		c-0.6,0.2-4.8,1.2-9.7,1.7c-4.9,0.4-33.6,2.5-36.2,2.7c-2.6,0.2-3.8-0.6-4-1.2c-0.2-0.5-0.2-0.7-0.2-0.7s38.3-6.8,39.7-7
		c1.3-0.2,2.4-0.4,4.2-0.1c1.8,0.2,4.3,0.8,5.5,1.1c0.9,0.2,1.9,0.3,2.4,0.4C440.6,54.8,441.3,54.6,442,54.6z"/>
	<path fill="#6E6F72" d="M359.2,37.6c0,0-11.4,1-10.3,12.2h20.7C369.5,49.8,372.2,41.2,359.2,37.6z"/>
	<path fill="#595A5C" d="M355.5,83.2v109.5c0,2.1,1.7,3.8,3.8,3.8l0,0c2.1,0,3.8-1.7,3.8-3.8V83.2c0-2.1-1.7-3.8-3.8-3.8l0,0
		C357.2,79.4,355.5,81.1,355.5,83.2z"/>
	<path fill="#6E6F72" d="M345.5,65l5.1,23.7c0.3,1.2,1.5,2.1,3,2.1h10.7c1.4,0,2.7-0.8,3-2l6.8-25.4c0.4-1.7-1.2-3.2-3.2-3.1
		l-22.5,1.7C346.5,62.2,345.2,63.6,345.5,65z"/>
	<path fill="#259ED9" d="M191.9,59l-98.7,4.8c-0.2,0-0.3,0-0.5,0l-5.9-1.3c-0.1,0-0.3,0-0.4,0l-18.1-0.1c-1,0-1.8,0.8-1.8,1.8V77
		c0,0.4,0.1,0.7,0.3,1l3,4.4c0.3,0.5,0.9,0.8,1.4,0.8l12.9,0.4c0.5,0,1.1-0.2,1.4-0.6l6.7-7.5c0.3-0.4,0.8-0.6,1.3-0.6L193.7,74
		c1.1,0,1.9-1,1.8-2.1l-1.7-11.4C193.6,59.7,192.8,59,191.9,59z"/>
	<path fill="#595A5C" d="M78.2,53.3c0.6,0.1,1.2,0.3,1.7,0.5c0.5,0,1.7,0.1,2.2,0.1c0.6,0,5,0,10,0.9c5,0.9,33.8,6.3,36.3,6.8
		c2.6,0.5,3.6,1.7,3.6,2.2c0,0.6,0,0.8,0,0.8s-39.6-3.2-40.9-3.4c-1.4-0.1-2.5-0.3-4.2-1c-1.7-0.7-4-2-5.1-2.6
		c-0.8-0.4-1.7-0.8-2.2-1c-0.6,0.1-1.2,0.1-1.9,0c-0.6-0.1-1.2-0.3-1.7-0.5c-0.5,0-1.7-0.1-2.2-0.1c-0.6,0-5,0-10-0.9
		c-5-0.9-33.8-6.3-36.3-6.8c-2.6-0.5-3.6-1.7-3.6-2.2c0-0.6,0-0.8,0-0.8s39.6,3.2,40.9,3.4c1.4,0.1,2.5,0.3,4.2,1
		c1.7,0.7,4,2,5.1,2.6c0.8,0.4,1.7,0.8,2.2,1C76.9,53.2,77.5,53.2,78.2,53.3z"/>
	<path fill="#595A5C" d="M358.3,33.3c1,0.1,1.9,0.3,2.7,0.6c0.8,0,2.7,0,3.4-0.2c0.9-0.1,7.9-0.8,15.7-0.1
		c7.9,0.6,53.7,4.9,57.7,5.3c4.1,0.4,5.8,2.1,5.9,3c0.2,0.9,0.1,1.2,0.1,1.2s-62.2,0.8-64.4,0.7c-2.2,0-3.9-0.1-6.7-0.9
		c-2.8-0.9-6.5-2.5-8.3-3.3c-1.3-0.5-2.8-1-3.6-1.3c-0.9,0.3-1.9,0.4-3,0.3c-1-0.1-1.9-0.3-2.7-0.6c-0.8,0-2.7,0-3.4,0.2
		c-0.9,0.1-7.9,0.8-15.7,0.1c-7.9-0.6-53.7-4.9-57.7-5.3c-4.1-0.4-5.8-2.1-5.9-3c-0.2-0.9-0.1-1.2-0.1-1.2s62.2-0.8,64.4-0.7
		c2.2,0,3.9,0.1,6.7,0.9c2.8,0.9,6.5,2.5,8.3,3.3c1.3,0.5,2.8,1,3.6,1.3C356.1,33.4,357.2,33.3,358.3,33.3z"/>
	<path fill="#595A5C" d="M256.8,39.3V12c0-1.2,1-2.2,2.2-2.2l0,0c1.2,0,2.2,1,2.2,2.2v27.3c0,1.6-1.6,2.7-3,2.1v0
		C257.4,41.1,256.8,40.3,256.8,39.3z"/>
	<path opacity="0.31" fill="#231F20" d="M259,9.8c0,0-2,0.1-2.2,2.1v27.3c0,0.9,2,2.1,2,2.1L259,9.8z"/>
	<path fill="#939598" d="M218.9,104"/>
	<path fill="#939598" d="M224.7,104.4"/>
	<path opacity="0.28" fill="#231F20" d="M194.6,66.3l0.9,5.7c0.2,1.1-0.7,2.1-1.8,2.1L93.5,74.9c-0.5,0-1,0.2-1.3,0.6L85.5,83
		c-0.4,0.4-0.9,0.6-1.4,0.6l-12.9-0.4c-0.6,0-1.1-0.3-1.4-0.8l-3-4.4c-0.2-0.3-0.3-0.7-0.3-1v-6.7L194.6,66.3z"/>
	<path fill="#595A5C" d="M200.5,89.5c0,0-6.6-2.1-7.7-9.3c0,0-5.3-32.9,8.9-39c0,0,24.8-3.7,51.1-2.4c0,0,31.6,0.6,47.8,4
		c0,0,15.2,1,15.4,11.5c0,0,3,39-8.3,39.5C307.8,93.8,252.6,103.4,200.5,89.5z"/>
	<path opacity="0.13" fill="#231F20" d="M316.3,74.6c-0.6,10.2-2.6,18.9-8.5,19.2c0,0-55.2,9.7-107.3-4.3c0,0-6.6-2.1-7.7-9.3
		c0,0-0.2-0.7-0.7-7.9L316.3,74.6z"/>
	<path opacity="0.52" fill="#231F20" d="M236,96.6c-11.8-0.7-24.8-2.7-37.5-7.2c0,0-5-2.1-5.8-9.3c0,0-4-32.9,6.7-39
		c0,0,18.8-3.7,38.6-2.4L236,96.6z"/>
	<path fill="#259ED9" d="M318.5,54.3l21.4,0.4c1.5,0,2.8-1.1,2.9-2.6l0.2-2.4c0.1-1.5,1.4-2.6,2.9-2.6H372c1.6,0,2.9,1.3,2.9,2.9
		v16.2c0,0.6-0.5,2.2-0.9,2.7l-2.5,5.6c-0.5,0.7-0.6,0.6-1,0.6l-20.7,0.1c-1.6,0-2.5-0.6-3-1.5l-2.6-5c-0.5-0.9-1.5-1.5-2.5-1.5
		h-24.5c-1.8,0-4.4-0.9-4-2.6v-8.3C313.3,54.8,317.1,54.3,318.5,54.3z"/>
	<path opacity="0.3" fill="#231F20" d="M77.5,83.4l-6.3-0.2c-0.6,0-1.1-0.3-1.4-0.8l-3-4.4c-0.2-0.3-0.3-0.7-0.3-1v-6.7l10.9-0.2
		L77.5,83.4z"/>
	<path opacity="0.3" fill="#231F20" d="M77.4,62.4l-9.1,0.1c-1,0-1.8,0.8-1.8,1.8l0,6.1L77.4,70L77.4,62.4z"/>
	<path opacity="0.51" fill="#231F20" d="M76,56.1c-0.5,0-1.7-0.1-2.2-0.1c-0.6,0-5,0-10-0.9c-5-0.9-33.8-6.3-36.3-6.8
		c-2.6-0.5-3.6-1.7-3.6-2.2c0-0.6,0-0.8,0-0.8s39.6,3.2,40.9,3.4c1.4,0.1,2.5,0.3,4.2,1c1.7,0.7,4,2,5.1,2.6c0.8,0.4,1.7,0.8,2.2,1"
		/>
	<path opacity="0.3" fill="#FFFFFF" d="M359.7,47.1h12.4c0.8,0,1.5,0.3,2,0.8c0.5,0.5,0.8,1.2,0.8,2v0.9l0.1,8.5l-0.1,0v6.8
		c0,0.6-0.5,2.2-0.9,2.7l-2.5,5.6c-0.2,0.3-0.3,0.4-0.4,0.5l-3.7,14c-0.3,1.2-1.5,2-3,2h-1.2v102c0,2.1-1.7,3.8-3.8,3.8L359.7,47.1z
		"/>
	<path opacity="0.48" fill="#231F20" d="M355.2,33.6c-0.8-0.2-2.3-0.7-3.6-1.3c-1.8-0.7-5.5-2.4-8.3-3.3c-2.8-0.9-4.5-0.9-6.7-0.9
		c-2.2,0-64.4,0.7-64.4,0.7s0,0.2,0.1,1.2c0.1,0.9,1.9,2.5,5.9,3c4.1,0.4,49.9,4.7,57.7,5.3c7.9,0.6,14.8,0,15.7-0.1
		c0.8-0.1,2.7-0.1,3.4-0.2C355.2,38.1,352.9,35.2,355.2,33.6z"/>
	<path opacity="0.41" fill="#E7E7E7" d="M375,59.3l-0.1-9.4c0-1.6-1.3-2.9-2.9-2.9h-26.2c-1.5,0-2.7,1.1-2.9,2.6l-0.2,2.4
		c-0.1,1.5-1.4,2.6-2.9,2.6l-21.4-0.4c-0.9,0-3.5,0.4-4.3,0.8c-1.9,0.8-1.1,3.8-1,4.7L375,59.3z"/>
</g>
</svg>
