<?xml version="1.0" encoding="utf-8"?>
<!-- Generator: Adobe Illustrator 18.1.1, SVG Export Plug-In . SVG Version: 6.00 Build 0)  -->
<svg version="1.1" id="Layer_1" xmlns="http://www.w3.org/2000/svg" xmlns:xlink="http://www.w3.org/1999/xlink" x="0px" y="0px"
	 viewBox="0 0 400 157" enable-background="new 0 0 400 157" xml:space="preserve">
<g>
	<path fill="#313032" d="M301.8,38.5V27.5c0-0.2-0.2-0.4-0.4-0.4h-18.1c-0.2,0-0.4,0.2-0.4,0.4v11.8c0,0.2,0.2,0.4,0.4,0.4l18.1-0.8
		C301.6,38.9,301.8,38.7,301.8,38.5z"/>
	<polyline fill="#414042" points="295.2,26.8 295.3,27.4 295.3,24.1 289.5,24.1 289.5,27.4 295.3,27.4 	"/>
	<polyline fill="#414042" points="101,25.1 101,25.6 101,22.4 106.7,22.4 106.7,25.7 101,25.6 	"/>
	<path fill="#313032" d="M94.4,36.9V25.7c0-0.2,0.1-0.3,0.3-0.3h18.1c0.2,0,0.3,0.1,0.3,0.3v11.9c0,0.2-0.2,0.3-0.3,0.3l-18.1-0.8
		C94.6,37.2,94.4,37,94.4,36.9z"/>
	<path fill="#5B5C5D" d="M107.8,16.7l80.2,3.2c0,0,1.6,0.7-1.6,1l-64.3,0.7l-14.6-3.8L107.8,16.7z"/>
	<path fill="#3B3A3C" d="M107.2,22.8h-6.7c-0.2,0-0.4-0.2-0.4-0.4v-2.9c0-0.2,0.2-0.4,0.4-0.4h6.7c0.2,0,0.4,0.2,0.4,0.4v2.9
		C107.7,22.6,107.5,22.8,107.2,22.8z"/>
	<path fill="#373638" d="M101.6,16.3c0,0-14.1-2.4-20-2.2l-59.2-0.5c0,0-2.5-0.2-2,0.9L83.9,24c0,0,6.5,0.7,9.4-1l9.2-3.8
		L101.6,16.3z"/>
	<path fill="#676662" d="M107,19.3h-6.3c-1,0-1.8-0.8-1.8-1.8v0c0-1,0.8-1.8,1.8-1.8h6.3c1,0,1.8,0.8,1.8,1.8v0
		C108.8,18.5,108,19.3,107,19.3z"/>
	<g opacity="0.26">
		<line x1="104.1" y1="25.8" x2="101" y2="25.7"/>
		<polyline points="104.1,25.8 101,25.7 101,22.5 104,22.5 		"/>
		<path d="M104.1,37.4l-9.3-0.1c-0.2,0-0.3-0.2-0.3-0.3V25.9c0-0.2,0.1-0.3,0.3-0.3h9.3"/>
		<path d="M104,22.9l-3.7,0c-0.2,0-0.3-0.1-0.3-0.3v-3.2c0-0.2,0.1-0.3,0.3-0.3l3.7,0"/>
		<path d="M104,19.5l-3.7,0c-0.7,0-1.4-0.6-1.4-1.4v-0.9c0-0.7,0.6-1.4,1.4-1.4l3.7,0"/>
	</g>
	<path fill="#3B3A3C" d="M289.6,24.5h5.7c0.5,0,0.9-0.4,0.9-0.9v-2c0-0.5-0.4-0.9-0.9-0.9h-5.7c-0.5,0-0.9,0.4-0.9,0.9v2
		C288.6,24.1,289.1,24.5,289.6,24.5z"/>
	<path fill="#5B5C5D" d="M288.7,18.4l-80.2,3.2c0,0-1.6,0.7,1.6,1l64.3,0.7l14.6-3.8L288.7,18.4z"/>
	<path fill="#414042" d="M96.7,36.5c0,0-2.9-0.3-4.8,1.6l-2.7,2.6c0,0-1,1-0.4,2.9l2.3,6.2c0,0,0.2,1.6,2.8,2.3
		c0.1,0,0.3,0.1,0.4,0.1l42,1.4c0.1,0,0.2,0,0.3,0c0.5-0.1,2.9-0.2,5,1.7c0.1,0.1,0.1,0.1,0.2,0.2l39.9,24.1c0.3,0.2,0.6,0.3,1,0.3
		l39.7,0.7c0.4,0,0.7-0.1,1-0.3l42.2-25c0,0,0.1,0,0.1-0.1c0.3-0.2,2.1-1,4.2-1l40.9-1.2c0,0,1.8,0,3-0.4c0.5-0.2,0.9-0.6,1.1-1
		c0.5-1.1,1.4-3.3,2.1-4.8c0,0,2.2-4.1-3.4-7.3c-0.1-0.1-0.2-0.1-0.3-0.1c-0.5-0.2-2.2-0.8-4.1-0.7l-36.4,0.7c0,0-2.6,0.1-5.4,1
		c-0.1,0-0.7,0.2-0.8,0.3c0,0-27.9,8.7-27.9,8.7s-7,2.3-11.3-0.1c0,0-2.6-1.2-4.2-1.2l-40.6-0.2c0,0-2.2-0.1-4.3,1.1
		c0,0-3.3,1.6-6.5,0.8l-31.9-9.6c-0.1,0-0.2-0.1-0.3-0.1c-0.8-0.4-4.8-2.3-7.5-2.1L96.7,36.5z"/>
	<polygon fill="#797A7C" points="180.3,48.1 188.8,38 216.9,38.2 225.7,48.5 	"/>
	<path fill="#58595B" d="M316.9,42.8l-44.6,0.9c-3.4-0.3-8.6,1.6-8.6,1.6L235.1,56c-4.5,2.6-11.8,3.1-11.8,3.1l-38.9-0.4
		c-5,0-9.5-1.8-9.5-1.8l-32.3-12.1c-7.2-2.5-12.9-2.8-12.9-2.8l-41-0.4c0,0,0.1-0.5,0.9-1.3l2.6-2.5c0,0,1-1,1.7-1.1
		s2.3-0.2,2.3-0.2l35.7,1.4c0,0,3.6,0.2,7.5,2.1l31.3,9.7c0,0,3.1,1.3,7.4-0.5c0,0,2.3-1.3,3.5-1.2l43.9,0.6c0,0,1.1,0,3.4,1.4
		c0,0,2.7,0.9,5.7,0.2l32.6-9.7c0,0,2.2-1.2,7.5-1l34.3-0.8C309.1,38.6,314.8,38,316.9,42.8z"/>
	<path fill="#85B9DC" d="M94.4,52.3l3.9,5.7c0,0,0.1,0,0.1,0.1l31.6,1.2c0,0,0,0,0.1,0l9-5.5c0.1-0.1,0.1-0.2-0.1-0.2l-3.1-0.3
		c0,0,0,0,0,0l-41.5-1.2C94.4,52.2,94.3,52.3,94.4,52.3z"/>
	<path fill="#85B9DC" d="M267.4,54.4l8.6,6.3c0,0,0,0,0.1,0l31.1-0.9c0,0,0,0,0.1,0l5.6-6.8c0-0.1,0-0.1-0.1-0.1l-43.3,1.4l-1.9,0
		C267.3,54.2,267.3,54.3,267.4,54.4z"/>
	<path fill="#2D2C2D" d="M137.3,54.9l11.9,8.6l-28.7,78.7c0,0-0.7,2.4,1.9,3.8c0,0,3.3,1.8,5.4-1.6l22.4-56.1c0,0,1.8-6.1,6.4-8.3
		l14.7-6.8l-7.5-4.9l-15.4,10.5l6.7-15.7l-15.8-9.3L137.3,54.9z"/>
	<path opacity="0.48" fill="#414042" d="M148.2,78.6l6.7-15.7l-15.8-9.3l-1.8,1.2l11.9,8.6L120.5,142c0,0-0.7,2.4,1.9,3.8"/>
	<path fill="#2D2C2D" d="M269.7,56.1l-12.2,7.9l26.5,77.8c0,0,0.8,3.5-2,4.8c0,0-3.5,1.2-5.4-3L256.4,90c0,0-2.6-6.8-7.9-9.4
		l-13.7-7.1l8-4.8l14.9,10.2l-6.3-15.2l15.6-9.4L269.7,56.1z"/>
	<path fill="#373638" d="M294.2,17.7c0,0,14.1-2.4,20-2.2l59.2-0.5c0,0,2.5-0.2,2,0.9l-63.5,9.5c0,0-6.5,0.7-9.4-1l-9.2-3.8
		L294.2,17.7z"/>
	<path fill="#676662" d="M289.3,21h6.3c1,0,1.8-0.8,1.8-1.8v0c0-1-0.8-1.8-1.8-1.8h-6.3c-1,0-1.8,0.8-1.8,1.8v0
		C287.5,20.2,288.3,21,289.3,21z"/>
	<polygon fill="#ADACAD" points="211.8,38.1 215.4,38.1 222,48.4 215.4,48.3 	"/>
	<polygon fill="#ADACAD" points="194,38 190.3,38.1 183.9,47.9 190.4,48 	"/>
	<g opacity="0.26">
		<line x1="292.1" y1="27.4" x2="295.2" y2="27.3"/>
		<polyline points="292.1,27.4 295.2,27.3 295.2,24.1 292.1,24.1 		"/>
		<path d="M292,39l9.5-0.1c0.2,0,0.3-0.2,0.3-0.3V27.5c0-0.2-0.2-0.3-0.3-0.3H292"/>
		<path d="M292.1,24.5l3.8,0c0.2,0,0.3-0.1,0.3-0.3V21c0-0.2-0.1-0.3-0.3-0.3l-3.7,0"/>
		<path d="M292.1,21.1l3.8,0c0.8,0,1.4-0.6,1.4-1.4v-0.9c0-0.7-0.6-1.4-1.4-1.4l-3.8,0"/>
	</g>
	<polyline opacity="0.14" fill="#FFFFFF" points="109.8,52.6 94.2,52.2 98.3,58.1 112.9,58.6 	"/>
	<polyline opacity="0.14" fill="#FFFFFF" points="297.1,53.3 312.7,52.8 307.1,59.8 293.6,60.1 	"/>
	<path opacity="0.48" fill="#414042" d="M257.7,78.6l-6.3-15.2l15.6-9.4l2.6,1.9l-12.2,7.9l26.5,77.8c0,0,0.8,3.5-2,4.8"/>
</g>
</svg>
